<svg width="25" height="21" viewBox="0 0 25 21" fill="none" xmlns="http://www.w3.org/2000/svg">
<path d="M0.966492 0.697266H4.59202L8.56615 16.9424" stroke="white" stroke-width="1.39443" stroke-miterlimit="10" stroke-linecap="round" stroke-linejoin="round"/>
<path d="M5.98639 6.55383H24.114L21.0463 15.4085H8.2872" stroke="white" stroke-width="1.39443" stroke-miterlimit="10" stroke-linecap="round" stroke-linejoin="round"/>
<path d="M8.91474 20.2194C9.76187 20.2194 10.4486 19.5326 10.4486 18.6855C10.4486 17.8384 9.76187 17.1516 8.91474 17.1516C8.0676 17.1516 7.38086 17.8384 7.38086 18.6855C7.38086 19.5326 8.0676 20.2194 8.91474 20.2194Z" stroke="white" stroke-width="1.39443" stroke-miterlimit="10" stroke-linecap="round" stroke-linejoin="round"/>
<path d="M19.5124 20.2194C20.3595 20.2194 21.0463 19.5326 21.0463 18.6855C21.0463 17.8384 20.3595 17.1516 19.5124 17.1516C18.6653 17.1516 17.9785 17.8384 17.9785 18.6855C17.9785 19.5326 18.6653 20.2194 19.5124 20.2194Z" stroke="white" stroke-width="1.39443" stroke-miterlimit="10" stroke-linecap="round" stroke-linejoin="round"/>
<path d="M10.1001 17.5002H18.397" stroke="white" stroke-width="1.39443" stroke-miterlimit="10" stroke-linecap="round" stroke-linejoin="round"/>
</svg>
