<svg width="52" height="50" viewBox="0 0 52 50" fill="none" xmlns="http://www.w3.org/2000/svg">
<path d="M50.2862 25C50.2862 38.231 39.2772 49 25.6431 49C12.009 49 1 38.231 1 25C1 11.769 12.009 1 25.6431 1C39.2772 1 50.2862 11.769 50.2862 25Z" stroke="#BBD700" stroke-width="2"/>
<path d="M25.3067 33.2134C28.1988 31.8641 34.1601 27.7574 34.1601 21.6561C34.1601 18.7227 32.2123 16.7867 29.2612 16.7867C26.3101 16.7867 25.3067 18.7227 25.3067 18.7227H25.2477C25.2477 18.7227 24.2443 16.7867 21.2932 16.7867C18.3421 16.7867 16.3944 18.7227 16.3944 21.6561C16.4534 27.7574 22.4147 31.8641 25.3067 33.2134Z" stroke="#BBD700" stroke-width="2" stroke-miterlimit="10" stroke-linecap="round" stroke-linejoin="round"/>
</svg>
